<svg width="30" height="30" viewBox="0 0 30 30" fill="none" xmlns="http://www.w3.org/2000/svg">
<path d="M18.675 6.4875C19.1476 5.94285 19.5079 5.31021 19.7353 4.62592C19.9627 3.94163 20.0526 3.21916 20 2.5C18.5492 2.61711 17.2025 3.29945 16.25 4.4C15.7939 4.92747 15.4482 5.5411 15.2335 6.20455C15.0188 6.86801 14.9394 7.5678 15 8.2625C15.7077 8.2684 16.4072 8.11137 17.0445 7.80357C17.6818 7.49578 18.2397 7.04547 18.675 6.4875ZM21.825 15.7875C21.8334 14.8297 22.0857 13.8898 22.5581 13.0565C23.0305 12.2232 23.7074 11.5241 24.525 11.025C24.009 10.2815 23.3269 9.66854 22.5328 9.23459C21.7387 8.80064 20.8544 8.55769 19.95 8.525C18 8.325 16.2 9.6625 15.1625 9.6625C14.125 9.6625 12.6625 8.55 11.0375 8.575C9.97517 8.60999 8.94004 8.91972 8.03307 9.47398C7.1261 10.0282 6.37827 10.8081 5.86251 11.7375C3.66251 15.5625 5.30001 21.25 7.50001 24.3375C8.50001 25.85 9.75001 27.5625 11.4 27.5C13.05 27.4375 13.5875 26.475 15.5 26.475C17.4125 26.475 18 27.5 19.625 27.4625C21.25 27.425 22.4 25.9125 23.45 24.4C24.1938 23.3019 24.7748 22.102 25.175 20.8375C24.1844 20.415 23.3392 19.7116 22.7438 18.8141C22.1485 17.9167 21.829 16.8645 21.825 15.7875Z" fill="black"/>
</svg>
