<svg width="30" height="30" viewBox="0 0 30 30" fill="none" xmlns="http://www.w3.org/2000/svg">
<path d="M29.9842 15.2807C29.9842 14.0516 29.8821 13.1547 29.6612 12.2246H15.2988V17.772H23.7292C23.5593 19.1507 22.6415 21.2268 20.6018 22.622L20.5732 22.8077L25.1143 26.2454L25.429 26.2761C28.3184 23.6684 29.9842 19.8316 29.9842 15.2807Z" fill="#4285F4"/>
<path d="M15.2988 29.897C19.429 29.897 22.8963 28.5681 25.429 26.2761L20.6018 22.622C19.3101 23.5023 17.5763 24.1168 15.2988 24.1168C11.2535 24.1168 7.82019 21.5092 6.59629 17.905L6.4169 17.9199L1.69496 21.4909L1.63321 21.6586C4.14873 26.5418 9.31581 29.897 15.2988 29.897Z" fill="#34A853"/>
<path d="M6.59629 17.905C6.27336 16.9749 6.08646 15.9782 6.08646 14.9485C6.08646 13.9186 6.27336 12.9221 6.5793 11.992L6.57075 11.7939L1.78964 8.1655L1.63321 8.23821C0.596441 10.2646 0.00154114 12.5401 0.00154114 14.9485C0.00154114 17.3568 0.596441 19.6323 1.63321 21.6586L6.59629 17.905Z" fill="#FBBC05"/>
<path d="M15.2988 5.78007C18.1712 5.78007 20.1088 6.99255 21.2137 8.00579L25.5309 3.88663C22.8795 1.47827 19.429 3.05176e-05 15.2988 3.05176e-05C9.31581 3.05176e-05 4.14873 3.35508 1.63321 8.23821L6.5793 11.992C7.82019 8.38776 11.2535 5.78007 15.2988 5.78007Z" fill="#EB4335"/>
</svg>
