<svg width="26" height="28" viewBox="0 0 26 28" fill="none" xmlns="http://www.w3.org/2000/svg">
<path d="M20.1161 12.9463C20.8512 19.9219 23.7368 22.03 23.7368 22.03H1C1 22.03 4.78947 19.2617 4.78947 9.57238C4.78947 7.36974 5.58797 5.25733 7.0093 3.69983C8.43063 2.14232 10.3584 1.26733 12.3684 1.26733C12.7945 1.26733 13.2169 1.30665 13.6316 1.38346M14.5537 25.923C14.3316 26.3163 14.0129 26.6428 13.6293 26.8696C13.2458 27.0966 12.811 27.2161 12.3684 27.2161C11.9258 27.2161 11.491 27.0966 11.1075 26.8696C10.724 26.6428 10.4052 26.3163 10.1831 25.923M21.2105 9.05332C23.3035 9.05332 25 7.31036 25 5.16033C25 3.01029 23.3035 1.26733 21.2105 1.26733C19.1176 1.26733 17.4211 3.01029 17.4211 5.16033C17.4211 7.31036 19.1176 9.05332 21.2105 9.05332Z" stroke="white" stroke-linecap="round" stroke-linejoin="round"/>
</svg>
