<svg width="18" height="18" viewBox="0 0 18 18" fill="none" xmlns="http://www.w3.org/2000/svg">
<path d="M3.89253 4.78508C3.75003 4.78508 3.60003 4.72508 3.49503 4.62008C3.27753 4.40258 3.27753 4.04258 3.49503 3.82508L6.21753 1.10258C6.43503 0.885078 6.79503 0.885078 7.01253 1.10258C7.23003 1.32008 7.23003 1.68008 7.01253 1.89758L4.29003 4.62008C4.17753 4.72508 4.03503 4.78508 3.89253 4.78508Z" fill="#D2D2D2" fill-opacity="0.5"/>
<path d="M14.1075 4.78508C13.965 4.78508 13.8225 4.73258 13.71 4.62008L10.9875 1.89758C10.77 1.68008 10.77 1.32008 10.9875 1.10258C11.205 0.885078 11.565 0.885078 11.7825 1.10258L14.505 3.82508C14.7225 4.04258 14.7225 4.40258 14.505 4.62008C14.4 4.72508 14.25 4.78508 14.1075 4.78508Z" fill="#D2D2D2" fill-opacity="0.5"/>
<path d="M15.1575 7.94995C15.105 7.94995 15.0525 7.94995 15 7.94995H14.8275H3C2.475 7.95745 1.875 7.95745 1.44 7.52245C1.095 7.18495 0.9375 6.65995 0.9375 5.88745C0.9375 3.82495 2.445 3.82495 3.165 3.82495H14.835C15.555 3.82495 17.0625 3.82495 17.0625 5.88745C17.0625 6.66745 16.905 7.18495 16.56 7.52245C16.17 7.91245 15.645 7.94995 15.1575 7.94995ZM3.165 6.82495H15.0075C15.345 6.83245 15.66 6.83245 15.765 6.72745C15.8175 6.67495 15.93 6.49495 15.93 5.88745C15.93 5.03995 15.72 4.94995 14.8275 4.94995H3.165C2.2725 4.94995 2.0625 5.03995 2.0625 5.88745C2.0625 6.49495 2.1825 6.67495 2.2275 6.72745C2.3325 6.82495 2.655 6.82495 2.985 6.82495H3.165Z" fill="#D2D2D2" fill-opacity="0.5"/>
<path d="M7.32007 13.725C7.01257 13.725 6.75757 13.47 6.75757 13.1625V10.5C6.75757 10.1925 7.01257 9.9375 7.32007 9.9375C7.62757 9.9375 7.88257 10.1925 7.88257 10.5V13.1625C7.88257 13.4775 7.62757 13.725 7.32007 13.725Z" fill="#D2D2D2" fill-opacity="0.5"/>
<path d="M10.77 13.725C10.4625 13.725 10.2075 13.47 10.2075 13.1625V10.5C10.2075 10.1925 10.4625 9.9375 10.77 9.9375C11.0775 9.9375 11.3325 10.1925 11.3325 10.5V13.1625C11.3325 13.4775 11.0775 13.725 10.77 13.725Z" fill="#D2D2D2" fill-opacity="0.5"/>
<path d="M11.1676 17.0625H6.64506C3.96006 17.0625 3.36006 15.465 3.12756 14.0775L2.07006 7.59C2.01756 7.2825 2.22756 6.9975 2.53506 6.945C2.84256 6.8925 3.12756 7.1025 3.18006 7.41L4.23756 13.89C4.45506 15.2175 4.90506 15.9375 6.64506 15.9375H11.1676C13.0951 15.9375 13.3126 15.2625 13.5601 13.9575L14.8201 7.395C14.8801 7.0875 15.1726 6.885 15.4801 6.9525C15.7876 7.0125 15.9826 7.305 15.9226 7.6125L14.6626 14.175C14.3701 15.6975 13.8826 17.0625 11.1676 17.0625Z" fill="#D2D2D2" fill-opacity="0.5"/>
</svg>
